<?xml version="1.0" encoding="UTF-8"?>
<svg version="1.1" xmlns="http://www.w3.org/2000/svg" width="1024" height="1024">
<path d="M0 0 C1.30702881 0.00563965 2.61405762 0.0112793 3.96069336 0.01708984 C48.5883802 0.57051809 90.35721311 18.82402647 123.4375 48.3125 C123.95296387 48.76625 124.46842773 49.22 124.99951172 49.6875 C133.51301692 57.195809 141.74480759 65.09668394 148.4375 74.3125 C151.46547848 72.96741756 153.43700268 71.49700001 155.69140625 69.08203125 C159.32990533 65.34098473 163.21795416 62.14580696 167.375 59 C168.11226318 58.44094971 168.84952637 57.88189941 169.60913086 57.3059082 C198.27703846 35.86535835 233.85300058 19.86659463 270.4375 22.3125 C271.08058105 22.35358887 271.72366211 22.39467773 272.38623047 22.43701172 C306.8009159 24.82384898 336.46278816 38.70004517 361.4375 62.3125 C362.18644531 63.00859375 362.93539062 63.7046875 363.70703125 64.421875 C383.19946589 83.12915027 395.47446079 108.17549267 401.4375 134.3125 C401.71678345 135.51942505 401.71678345 135.51942505 402.00170898 136.75073242 C403.67282185 144.79497436 403.879697 152.81511941 403.875 161 C403.87560425 162.08473099 403.87560425 162.08473099 403.8762207 163.19137573 C403.73476105 207.55665821 383.47632104 251.92206439 353.4375 284.16015625 C351.59668281 286.14119194 349.86025357 288.17687254 348.125 290.25 C325.0334251 316.55019921 288.37632897 340.49483402 254.4375 349.3125 C254.4375 346.3125 254.4375 346.3125 256.3125 344.125 C258.4375 342.3125 258.4375 342.3125 260.4375 342.3125 C260.4375 341.6525 260.4375 340.9925 260.4375 340.3125 C261.87109375 338.9375 261.87109375 338.9375 263.875 337.3125 C268.88253707 333.04162338 273.12510119 328.27209927 277.4375 323.3125 C278.37579158 322.25996135 279.31461653 321.207898 280.25390625 320.15625 C291.91337989 306.97764547 301.7763283 292.61417493 310.4375 277.3125 C310.78264648 276.70728516 311.12779297 276.10207031 311.48339844 275.47851562 C331.54853662 240.02068458 342.40209392 196.51478825 331.91748047 156.31884766 C326.43588649 136.69973784 316.21946435 118.51017144 298.1875 108.125 C279.67468624 98.50862174 258.53530592 97.91815521 238.75146484 103.93530273 C219.77469391 110.07372184 204.60756931 122.34290829 195.24194336 140.10449219 C190.23878292 149.98802192 186.78290438 159.68178235 185 170.625 C182.01749413 188.81342964 174.87859888 205.58121309 162.4375 219.3125 C161.70015625 220.14265625 160.9628125 220.9728125 160.203125 221.828125 C145.63599686 237.34735302 126.06697798 245.5510663 105.4375 249.3125 C104.4475 249.3125 103.4575 249.3125 102.4375 249.3125 C102.46779297 248.76126465 102.49808594 248.2100293 102.52929688 247.64208984 C105.240304 197.06095311 100.48062341 152.60641649 65.4375 113.3125 C64.79296875 112.58289063 64.1484375 111.85328125 63.484375 111.1015625 C47.64429049 94.228429 26.0404434 82.53088494 2.91796875 81.09375 C-28.56611982 80.28904486 -59.70116117 93.25304368 -83.5625 113.3125 C-84.13355469 113.90289062 -84.70460938 114.49328125 -85.29296875 115.1015625 C-86.5625 116.3125 -86.5625 116.3125 -88.5625 116.3125 C-88.5625 116.9725 -88.5625 117.6325 -88.5625 118.3125 C-89.2225 118.3125 -89.8825 118.3125 -90.5625 118.3125 C-90.5625 118.9725 -90.5625 119.6325 -90.5625 120.3125 C-91.70265469 121.48720483 -92.84960056 122.6558268 -94.0234375 123.796875 C-117.88110657 147.29122931 -129.44604895 181.3837423 -129.80419922 214.34716797 C-129.92051571 266.40905891 -110.79552505 312.27162598 -75.3125 350.21875 C-73.5625 352.3125 -73.5625 352.3125 -72.5625 355.3125 C-71.9025 355.3125 -71.2425 355.3125 -70.5625 355.3125 C-67.9375 357.6875 -67.9375 357.6875 -65.5625 360.3125 C-65.5625 360.9725 -65.5625 361.6325 -65.5625 362.3125 C-65.00949219 362.54324219 -64.45648438 362.77398438 -63.88671875 363.01171875 C-60.92598427 364.66873486 -58.8197257 366.76992573 -56.375 369.125 C-34.02337321 390.08795765 -7.00911208 406.01265597 20.4375 419.3125 C22.43885808 420.30977922 24.43933935 421.30882972 26.4375 422.3125 C26.23253906 421.38050781 26.02757812 420.44851563 25.81640625 419.48828125 C25.54699219 418.21339844 25.27757812 416.93851563 25 415.625 C24.73316406 414.38363281 24.46632813 413.14226562 24.19140625 411.86328125 C22.30853063 401.64665152 22.2840426 391.15266276 22.19140625 380.796875 C22.15843588 378.21874701 22.12522483 375.64062209 22.09179688 373.0625 C22.04480853 369.08139414 22.00037704 365.10032616 21.96069336 361.11914062 C21.85590424 328.68765391 21.85590424 328.68765391 17.125 296.6875 C16.90626221 295.70007813 16.68752441 294.71265625 16.4621582 293.6953125 C11.34725222 271.27702251 1.5396553 245.57244956 -18.125 231.875 C-26.8407346 226.48099642 -36.15857829 223.88219694 -46.3125 225.84375 C-57.86224618 228.7953518 -66.97199229 233.6065141 -73.421875 243.89453125 C-77.03343992 251.55055414 -78.08548113 258.36750754 -78 266.8125 C-77.99242676 267.86695313 -77.98485352 268.92140625 -77.97705078 270.0078125 C-77.70083697 283.2660752 -74.51076147 294.96225836 -69.40576172 307.13867188 C-67.49472113 311.81253115 -67.49472113 311.81253115 -67.89453125 314.76171875 C-68.11496094 315.27347656 -68.33539063 315.78523438 -68.5625 316.3125 C-85.80882588 301.97789148 -96.55442251 282.58486582 -99.31640625 260.17578125 C-101.0057703 233.65544722 -98.79125935 208.97929814 -80.73046875 187.953125 C-75.52216115 182.07532008 -70.24870896 176.51455369 -63.5625 172.3125 C-62.64855469 171.72984375 -61.73460937 171.1471875 -60.79296875 170.546875 C-54.29048839 166.57360074 -47.87003877 163.48294808 -40.5625 161.3125 C-39.82257813 161.08691406 -39.08265625 160.86132812 -38.3203125 160.62890625 C-20.33310612 156.11654479 -1.98459012 159.81314567 14.14453125 168.32421875 C19.37593461 171.482919 23.92946779 175.20288635 28.4375 179.3125 C29.38689453 180.15748047 29.38689453 180.15748047 30.35546875 181.01953125 C57.99120334 207.01103449 68.16274261 249.16905918 72.4375 285.3125 C72.52419952 285.99568802 72.61089905 286.67887604 72.70022583 287.38276672 C73.57071714 294.91458362 73.58325849 302.41498244 73.5703125 309.98828125 C73.5709888 311.40341712 73.57196152 312.81855288 73.57321167 314.23368835 C73.57467861 317.1929943 73.57257014 320.15226988 73.56787109 323.11157227 C73.56223113 326.83847796 73.56551166 330.56531132 73.57131958 334.29221439 C73.58928709 347.93858253 73.56369244 361.56121679 72.80722046 375.19125366 C72.31660971 384.0427125 72.19403777 392.88599887 72.1875 401.75 C72.18682526 402.59080109 72.18615051 403.43160217 72.18545532 404.29788208 C72.21946228 431.15988344 75.03029014 457.60829627 92.4375 479.3125 C93.0975 479.6425 93.7575 479.9725 94.4375 480.3125 C94.4375 480.9725 94.4375 481.6325 94.4375 482.3125 C95.0975 482.3125 95.7575 482.3125 96.4375 482.3125 C96.4375 482.9725 96.4375 483.6325 96.4375 484.3125 C96.98148437 484.56902344 97.52546875 484.82554687 98.0859375 485.08984375 C100.85750816 486.53087634 103.43822388 488.18089183 106.0625 489.875 C109.67200102 492.23078365 109.67200102 492.23078365 113.4375 494.3125 C113.4375 494.9725 113.4375 495.6325 113.4375 496.3125 C106.39491005 495.72501309 99.91515754 494.30791705 93.125 492.375 C92.04541016 492.06852539 90.96582031 491.76205078 89.85351562 491.44628906 C63.07460057 483.66457909 37.15924881 473.22451698 12.42578125 460.34570312 C10.24786284 459.21395574 8.06146729 458.09950982 5.875 456.984375 C-24.80108307 441.22171305 -53.51130707 421.34146283 -78.79296875 397.86328125 C-81.01477318 395.8169649 -83.26283738 393.83185577 -85.5625 391.875 C-93.84712624 384.68000101 -101.49694036 376.69716627 -108.5625 368.3125 C-109.36945313 367.38308594 -110.17640625 366.45367188 -111.0078125 365.49609375 C-144.7334239 326.49951639 -170.742057 279.93447002 -177.5625 228.3125 C-177.70715698 227.25712036 -177.70715698 227.25712036 -177.85473633 226.18041992 C-178.76969276 218.51287318 -178.74860181 210.82132372 -178.74780273 203.11108398 C-178.74997306 200.77894371 -178.76814156 198.44729044 -178.78710938 196.11523438 C-178.841736 181.87489027 -177.48308845 167.98401232 -174.375 154.0625 C-174.05462769 152.61870972 -174.05462769 152.61870972 -173.7277832 151.14575195 C-165.77687264 116.6786533 -149.49039955 86.10615006 -126.5625 59.3125 C-125.65757813 58.22388672 -125.65757813 58.22388672 -124.734375 57.11328125 C-120.70604438 52.35005248 -116.32870531 48.32279629 -111.5625 44.3125 C-110.61503906 43.4771875 -109.66757813 42.641875 -108.69140625 41.78125 C-78.46387896 15.275487 -40.37199063 -0.18486553 0 0 Z " fill="#379583" transform="translate(239.5625,263.6875)"/>
<path d="M0 0 C5.94 0 11.88 0 18 0 C23.20339184 6.590963 23.20339184 6.590963 24.64453125 10.01953125 C27.52389815 16.36311583 31.24481828 22.19067738 34.875 28.125 C36.16616152 30.2721767 37.45533732 32.42054915 38.7421875 34.5703125 C39.2976123 35.49602051 39.85303711 36.42172852 40.42529297 37.37548828 C41.95019531 39.91699219 43.47509766 42.45849609 45 45 C44.99777939 44.45098526 44.99555878 43.90197052 44.99327087 43.33631897 C44.97121642 37.64292041 44.95609274 31.9495339 44.94506836 26.25610352 C44.94002702 24.12881986 44.93319409 22.00153969 44.92456055 19.87426758 C44.91248621 16.82372174 44.90676986 13.77322155 44.90234375 10.72265625 C44.89718246 9.76537125 44.89202118 8.80808624 44.88670349 7.8217926 C44.88662796 6.94095505 44.88655243 6.06011749 44.88647461 5.15258789 C44.884254 4.37315323 44.88203339 3.59371857 44.87974548 2.79066467 C45 1 45 1 46 0 C50.95 0 55.9 0 61 0 C61 24.75 61 49.5 61 75 C55.72 75 50.44 75 45 75 C41.82437119 71.76556325 40.81201693 69.98643725 39 66 C37.53224942 63.3850922 35.97784625 60.82262958 34.4375 58.25 C33.58399613 56.78813347 32.73115811 55.32587804 31.87890625 53.86328125 C26.75265543 45.14157289 21.3459669 36.58767023 16 28 C15.67 43.51 15.34 59.02 15 75 C10.05 75 5.1 75 0 75 C0 50.25 0 25.5 0 0 Z " fill="#379583" transform="translate(707,685)"/>
<path d="M0 0 C39.11111111 0 39.11111111 0 47.4375 6.8125 C52.81654944 12.96869256 53.63258675 18.75567776 53.40234375 26.77734375 C52.64352516 32.85525967 50.44089322 37.03259108 45.6640625 40.8828125 C43.48660409 42.3596376 41.29908398 43.72273112 39 45 C43.1241496 53.10608714 48.38651358 60.18491331 53.8425293 67.42529297 C57 71.72094495 57 71.72094495 57 75 C51.01536073 75.94806167 44.88327717 76.86095872 39 75 C34.40717867 71.44259733 31.80146458 66.08002929 29.12109375 61.03515625 C27.57522805 58.22889831 25.71819588 55.69617698 23.8125 53.125 C21 49.23887588 21 49.23887588 21 47 C19.35 47 17.7 47 16 47 C16 56.24 16 65.48 16 75 C10.72 75 5.44 75 0 75 C0 50.25 0 25.5 0 0 Z M16 15 C16 20.94 16 26.88 16 33 C25.85187166 33.99086551 25.85187166 33.99086551 34.9375 31 C37.20283402 27.7049687 37.67567347 25.95531933 37.69921875 22.0625 C36.54834878 18.66775506 34.83103197 17.15856899 32 15 C29.18884152 14.4157045 26.5425661 14.52294707 23.6875 14.6875 C19.8821875 14.8421875 19.8821875 14.8421875 16 15 Z " fill="#379583" transform="translate(486,685)"/>
<path d="M0 0 C2.15543773 2.13088832 2.38836019 3.73184632 2.71484375 6.6953125 C2.05484375 6.6953125 1.39484375 6.6953125 0.71484375 6.6953125 C0.71484375 7.3553125 0.71484375 8.0153125 0.71484375 8.6953125 C-1.03515625 10.203125 -1.03515625 10.203125 -3.28515625 11.8203125 C-4.02765625 12.35914063 -4.77015625 12.89796875 -5.53515625 13.453125 C-6.11265625 13.86304688 -6.69015625 14.27296875 -7.28515625 14.6953125 C-7.8884375 14.27378906 -8.49171875 13.85226562 -9.11328125 13.41796875 C-9.9125 12.87011719 -10.71171875 12.32226562 -11.53515625 11.7578125 C-12.3240625 11.21253906 -13.11296875 10.66726563 -13.92578125 10.10546875 C-19.16867529 6.97188473 -24.97379834 6.89302362 -30.81640625 8.30859375 C-37.37330049 10.55018259 -40.92209227 13.66296347 -44.28515625 19.6953125 C-46.89059693 25.26148123 -47.33512048 31.20489087 -45.5625 37.09765625 C-42.59377822 44.32114528 -38.55095657 48.60348258 -31.28515625 51.6953125 C-25.42643542 53.77421344 -19.74576746 52.94336283 -14.140625 50.6015625 C-8.0082051 47.60635952 -7.11013634 45.2869327 -4.28515625 38.6953125 C-11.21515625 38.6953125 -18.14515625 38.6953125 -25.28515625 38.6953125 C-25.28515625 34.4053125 -25.28515625 30.1153125 -25.28515625 25.6953125 C-13.40515625 25.6953125 -1.52515625 25.6953125 10.71484375 25.6953125 C13.10861778 35.27040863 11.27824268 44.5434075 6.51171875 53.06640625 C1.36588586 60.5949835 -5.8328669 65.08759921 -14.63671875 67.28125 C-26.22566268 69.09309079 -36.72269222 67.94314954 -46.53515625 61.4453125 C-55.07610837 55.04629194 -60.60421823 47.41525686 -62.28515625 36.6953125 C-63.18183873 24.78854513 -61.60083104 14.87450619 -53.91015625 5.47265625 C-39.47063712 -10.3205678 -17.63529343 -11.34361581 0 0 Z " fill="#379583" transform="translate(452.28515625,692.3046875)"/>
<path d="M0 0 C5.28 0 10.56 0 16 0 C16 9.57 16 19.14 16 29 C25.57 29 35.14 29 45 29 C45 19.43 45 9.86 45 0 C49.95 0 54.9 0 60 0 C60 24.75 60 49.5 60 75 C55.05 75 50.1 75 45 75 C45 64.77 45 54.54 45 44 C35.43 44 25.86 44 16 44 C16 54.23 16 64.46 16 75 C10.72 75 5.44 75 0 75 C0 50.25 0 25.5 0 0 Z " fill="#379583" transform="translate(903,685)"/>
<path d="M0 0 C0.85049423 0.00222061 1.70098846 0.00444122 2.57725525 0.00672913 C4.01863609 0.00684242 4.01863609 0.00684242 5.48913574 0.00695801 C7.05630592 0.01469994 7.05630592 0.01469994 8.65513611 0.02259827 C9.71913132 0.02401321 10.78312653 0.02542816 11.87936401 0.02688599 C15.29293069 0.03250388 18.70643286 0.04505941 22.11997986 0.05775452 C24.42792162 0.06276721 26.73586441 0.06733052 29.04380798 0.07142639 C34.71505697 0.08247913 40.38625746 0.09975574 46.05747986 0.12025452 C46.05747986 5.07025452 46.05747986 10.02025452 46.05747986 15.12025452 C35.16747986 15.12025452 24.27747986 15.12025452 13.05747986 15.12025452 C13.05747986 20.07025452 13.05747986 25.02025452 13.05747986 30.12025452 C22.62747986 30.12025452 32.19747986 30.12025452 42.05747986 30.12025452 C42.05747986 35.07025452 42.05747986 40.02025452 42.05747986 45.12025452 C32.48747986 45.12025452 22.91747986 45.12025452 13.05747986 45.12025452 C13.05747986 50.07025452 13.05747986 55.02025452 13.05747986 60.12025452 C23.94747986 60.12025452 34.83747986 60.12025452 46.05747986 60.12025452 C46.05747986 65.07025452 46.05747986 70.02025452 46.05747986 75.12025452 C39.23985562 75.14489699 32.42225706 75.16308696 25.604599 75.17518616 C23.28330535 75.18022785 20.96201489 75.18706103 18.64073181 75.19569397 C15.31219191 75.20776676 11.98369384 75.2134843 8.65513611 75.21791077 C7.08796593 75.22565269 7.08796593 75.22565269 5.48913574 75.23355103 C4.52821518 75.23362656 3.56729462 75.23370209 2.57725525 75.23377991 C1.72676102 75.23600052 0.87626678 75.23822113 0 75.24050903 C-1.94252014 75.12025452 -1.94252014 75.12025452 -2.94252014 74.12025452 C-3.042196 71.85576072 -3.07051845 69.5881124 -3.07191467 67.32142639 C-3.07366699 66.61087601 -3.07541931 65.90032562 -3.07722473 65.16824341 C-3.08164291 62.80847261 -3.07870539 60.44877614 -3.07533264 58.08900452 C-3.07600569 56.45615118 -3.07697572 54.82329794 -3.07823181 53.19044495 C-3.07970874 49.76388091 -3.0775544 46.33734288 -3.07289124 42.91078186 C-3.06719395 38.5087095 -3.07047298 34.10669811 -3.0764637 29.70462799 C-3.08006945 26.33157386 -3.07893066 22.95853429 -3.07633591 19.58547974 C-3.07566668 17.96189364 -3.07649492 16.33830625 -3.07881546 14.71472168 C-3.08134223 12.44947281 -3.07750108 10.18432402 -3.07191467 7.91908264 C-3.07111908 6.6274823 -3.07032349 5.33588196 -3.06950378 4.00514221 C-2.9011154 0.17959774 -2.9011154 0.17959774 0 0 Z " fill="#379583" transform="translate(567.9425201416016,684.8797454833984)"/>
<path d="M0 0 C15.84 0 31.68 0 48 0 C48 4.95 48 9.9 48 15 C37.44 15 26.88 15 16 15 C16 19.95 16 24.9 16 30 C25.57 30 35.14 30 45 30 C45 34.95 45 39.9 45 45 C35.43 45 25.86 45 16 45 C16 49.95 16 54.9 16 60 C26.56 60 37.12 60 48 60 C48 64.95 48 69.9 48 75 C32.16 75 16.32 75 0 75 C0 50.25 0 25.5 0 0 Z " fill="#379583" transform="translate(636,685)"/>
<path d="M0 0 C4.22691546 2.57873387 6.37718391 6.20249462 9.09375 10.27734375 C9.09375 11.59734375 9.09375 12.91734375 9.09375 14.27734375 C1.26642436 18.25069206 1.26642436 18.25069206 -2.65625 18.33984375 C-4.90625 17.27734375 -4.90625 17.27734375 -7.21875 14.71484375 C-10.00723482 12.18575287 -10.45084512 11.88809261 -13.96875 11.77734375 C-17.75981927 12.25874937 -19.26085092 12.63194467 -21.90625 15.27734375 C-22.04103935 18.15600631 -22.04103935 18.15600631 -20.90625 21.27734375 C-17.2398659 23.57782005 -13.56087058 25.01808055 -9.54296875 26.609375 C6.10988833 32.98148331 6.10988833 32.98148331 10.2734375 40.37109375 C12.97803537 47.16849016 12.32428367 53.72246871 9.96875 60.52734375 C5.84023534 66.58249858 0.339955 70.7985264 -6.90625 72.27734375 C-16.47454583 73.2184876 -24.61672614 72.221863 -32.21875 66.08984375 C-35.82577765 62.69160613 -38.41561288 59.03365298 -39.90625 54.27734375 C-39.90625 52.95734375 -39.90625 51.63734375 -39.90625 50.27734375 C-38.32657193 49.60206152 -36.74233097 48.93744681 -35.15625 48.27734375 C-34.27453125 47.90609375 -33.3928125 47.53484375 -32.484375 47.15234375 C-29.90625 46.27734375 -29.90625 46.27734375 -25.90625 46.27734375 C-24.6328125 47.921875 -24.6328125 47.921875 -23.53125 50.08984375 C-21.2252225 54.05508615 -19.44656746 55.91524851 -14.90625 57.27734375 C-10.64966661 57.06090731 -8.46616776 56.65062226 -4.90625 54.27734375 C-3.980428 51.57109484 -3.65517797 49.98391259 -4.62109375 47.265625 C-6.22715465 44.78086817 -7.61206178 44.08805637 -10.28125 42.83984375 C-11.17070313 42.41832031 -12.06015625 41.99679687 -12.9765625 41.5625 C-16.01160971 40.23112596 -19.07684119 39.00219588 -22.15625 37.77734375 C-28.86670131 35.02080406 -33.62201063 32.01867719 -36.90625 25.27734375 C-38.96237997 19.66971656 -38.31281299 13.70375786 -36.08203125 8.26953125 C-28.60718376 -4.39549274 -12.4202669 -5.66573864 0 0 Z " fill="#379583" transform="translate(868.90625,687.72265625)"/>
<path d="M0 0 C4.95 0 9.9 0 15 0 C15 24.75 15 49.5 15 75 C10.05 75 5.1 75 0 75 C-1.90170704 73.09829296 -1.12784206 69.72152287 -1.12939453 67.20117188 C-1.13114685 66.49062149 -1.13289917 65.78007111 -1.13470459 65.04798889 C-1.13912277 62.68821809 -1.13618525 60.32852163 -1.1328125 57.96875 C-1.13348555 56.33589666 -1.13445558 54.70304342 -1.13571167 53.07019043 C-1.1371886 49.64362639 -1.13503426 46.21708837 -1.13037109 42.79052734 C-1.1246738 38.38845499 -1.12795284 33.98644359 -1.13394356 29.58437347 C-1.13754931 26.21131935 -1.13641052 22.83827978 -1.13381577 19.46522522 C-1.13314654 17.84163913 -1.13397478 16.21805173 -1.13629532 14.59446716 C-1.13882209 12.3292183 -1.13498094 10.0640695 -1.12939453 7.79882812 C-1.12859894 6.50722778 -1.12780334 5.21562744 -1.12698364 3.8848877 C-1 1 -1 1 0 0 Z " fill="#379583" transform="translate(791,685)"/>
</svg>
